<svg width="34" height="34" viewBox="0 0 34 34" fill="none" xmlns="http://www.w3.org/2000/svg">
<g id="octicon:info-16" filter="url(#filter0_d_46_268)">
<path id="Vector" d="M4 13C4 9.55219 5.36964 6.24558 7.80761 3.80761C10.2456 1.36964 13.5522 0 17 0C20.4478 0 23.7544 1.36964 26.1924 3.80761C28.6304 6.24558 30 9.55219 30 13C30 16.4478 28.6304 19.7544 26.1924 22.1924C23.7544 24.6304 20.4478 26 17 26C13.5522 26 10.2456 24.6304 7.80761 22.1924C5.36964 19.7544 4 16.4478 4 13ZM17 2.4375C14.1987 2.4375 11.512 3.55033 9.53118 5.53118C7.55033 7.51204 6.4375 10.1987 6.4375 13C6.4375 15.8013 7.55033 18.488 9.53118 20.4688C11.512 22.4497 14.1987 23.5625 17 23.5625C19.8013 23.5625 22.488 22.4497 24.4688 20.4688C26.4497 18.488 27.5625 15.8013 27.5625 13C27.5625 10.1987 26.4497 7.51204 24.4688 5.53118C22.488 3.55033 19.8013 2.4375 17 2.4375ZM14.5625 12.5938C14.5625 12.2705 14.6909 11.9605 14.9195 11.732C15.148 11.5034 15.458 11.375 15.7812 11.375H17.4062C17.7295 11.375 18.0395 11.5034 18.268 11.732C18.4966 11.9605 18.625 12.2705 18.625 12.5938V17.0625H19.0312C19.3545 17.0625 19.6645 17.1909 19.893 17.4195C20.1216 17.648 20.25 17.958 20.25 18.2812C20.25 18.6045 20.1216 18.9145 19.893 19.143C19.6645 19.3716 19.3545 19.5 19.0312 19.5H15.7812C15.458 19.5 15.148 19.3716 14.9195 19.143C14.6909 18.9145 14.5625 18.6045 14.5625 18.2812C14.5625 17.958 14.6909 17.648 14.9195 17.4195C15.148 17.1909 15.458 17.0625 15.7812 17.0625H16.1875V13.8125H15.7812C15.458 13.8125 15.148 13.6841 14.9195 13.4555C14.6909 13.227 14.5625 12.917 14.5625 12.5938ZM17 9.75C16.569 9.75 16.1557 9.57879 15.851 9.27405C15.5462 8.9693 15.375 8.55598 15.375 8.125C15.375 7.69402 15.5462 7.2807 15.851 6.97595C16.1557 6.67121 16.569 6.5 17 6.5C17.431 6.5 17.8443 6.67121 18.149 6.97595C18.4538 7.2807 18.625 7.69402 18.625 8.125C18.625 8.55598 18.4538 8.9693 18.149 9.27405C17.8443 9.57879 17.431 9.75 17 9.75Z" fill="#EEEEEE"/>
</g>
<defs>
<filter id="filter0_d_46_268" x="0" y="0" width="34" height="34" filterUnits="userSpaceOnUse" color-interpolation-filters="sRGB">
<feFlood flood-opacity="0" result="BackgroundImageFix"/>
<feColorMatrix in="SourceAlpha" type="matrix" values="0 0 0 0 0 0 0 0 0 0 0 0 0 0 0 0 0 0 127 0" result="hardAlpha"/>
<feOffset dy="4"/>
<feGaussianBlur stdDeviation="2"/>
<feComposite in2="hardAlpha" operator="out"/>
<feColorMatrix type="matrix" values="0 0 0 0 0 0 0 0 0 0 0 0 0 0 0 0 0 0 0.25 0"/>
<feBlend mode="normal" in2="BackgroundImageFix" result="effect1_dropShadow_46_268"/>
<feBlend mode="normal" in="SourceGraphic" in2="effect1_dropShadow_46_268" result="shape"/>
</filter>
</defs>
</svg>
