<svg width="245" height="73" viewBox="0 0 245 73" fill="none" xmlns="http://www.w3.org/2000/svg">
<rect width="245" height="73" rx="8" fill="#CCCCCC"/>
<path d="M106.712 21.6969C106.624 21.5941 106.515 21.5116 106.392 21.455C106.269 21.3984 106.136 21.3691 106 21.3691C105.865 21.3691 105.731 21.3984 105.608 21.455C105.486 21.5116 105.376 21.5941 105.288 21.6969C102.815 24.5898 94.75 34.5914 94.75 42C94.75 48.9039 99.0969 53.25 106 53.25C112.903 53.25 117.25 48.9039 117.25 42C117.25 34.5914 109.185 24.5898 106.712 21.6969ZM107.25 49.1875C107.1 49.1878 106.952 49.1521 106.818 49.0833C106.685 49.0145 106.57 48.9146 106.483 48.7921C106.396 48.6696 106.34 48.528 106.319 48.3793C106.299 48.2306 106.314 48.0791 106.364 47.9375C106.428 47.7528 106.549 47.5929 106.709 47.4807C106.869 47.3685 107.06 47.3096 107.255 47.3125C108.496 47.3098 109.686 46.8157 110.563 45.9382C111.441 45.0607 111.935 43.8714 111.938 42.6305C111.935 42.435 111.994 42.2437 112.106 42.0836C112.218 41.9236 112.378 41.803 112.562 41.7391C112.704 41.689 112.856 41.6737 113.004 41.6944C113.153 41.7151 113.295 41.7712 113.417 41.8581C113.54 41.9449 113.639 42.0599 113.708 42.1933C113.777 42.3268 113.813 42.4748 113.812 42.625C113.811 44.3649 113.119 46.033 111.888 47.2633C110.658 48.4936 108.99 49.1856 107.25 49.1875Z" fill="#AAAAAA"/>
<path d="M140.712 21.6969C140.624 21.5941 140.515 21.5116 140.392 21.455C140.269 21.3984 140.136 21.3691 140 21.3691C139.865 21.3691 139.731 21.3984 139.608 21.455C139.486 21.5116 139.376 21.5941 139.288 21.6969C136.815 24.5898 128.75 34.5914 128.75 42C128.75 48.9039 133.097 53.25 140 53.25C146.903 53.25 151.25 48.9039 151.25 42C151.25 34.5914 143.185 24.5898 140.712 21.6969ZM141.25 49.1875C141.1 49.1878 140.952 49.1521 140.818 49.0833C140.685 49.0145 140.57 48.9146 140.483 48.7921C140.396 48.6696 140.34 48.528 140.319 48.3793C140.299 48.2306 140.314 48.0791 140.364 47.9375C140.428 47.7528 140.549 47.5929 140.709 47.4807C140.869 47.3685 141.06 47.3096 141.255 47.3125C142.496 47.3098 143.686 46.8157 144.563 45.9382C145.441 45.0607 145.935 43.8714 145.938 42.6305C145.935 42.435 145.994 42.2437 146.106 42.0836C146.218 41.9236 146.378 41.803 146.562 41.7391C146.704 41.689 146.856 41.6737 147.004 41.6944C147.153 41.7151 147.295 41.7712 147.417 41.8581C147.54 41.9449 147.639 42.0599 147.708 42.1933C147.777 42.3268 147.813 42.4748 147.812 42.625C147.811 44.3649 147.119 46.033 145.888 47.2633C144.658 48.4936 142.99 49.1856 141.25 49.1875Z" fill="#AAAAAA"/>
</svg>
