<svg width="26" height="26" viewBox="0 0 26 26" fill="none" xmlns="http://www.w3.org/2000/svg">
<g id="ph:map-pin-fill">
<path id="Vector" d="M13 1.625C10.6305 1.62769 8.35873 2.57018 6.6832 4.2457C5.00768 5.92123 4.06519 8.19295 4.0625 10.5625C4.0625 18.2102 12.1875 23.986 12.5338 24.2277C12.6704 24.3234 12.8332 24.3748 13 24.3748C13.1668 24.3748 13.3296 24.3234 13.4662 24.2277C13.8125 23.986 21.9375 18.2102 21.9375 10.5625C21.9348 8.19295 20.9923 5.92123 19.3168 4.2457C17.6413 2.57018 15.3695 1.62769 13 1.625ZM13 7.3125C13.6428 7.3125 14.2711 7.50311 14.8056 7.86022C15.3401 8.21734 15.7566 8.72492 16.0026 9.31878C16.2486 9.91264 16.313 10.5661 16.1876 11.1965C16.0622 11.827 15.7526 12.4061 15.2981 12.8606C14.8436 13.3151 14.2645 13.6247 13.634 13.7501C13.0036 13.8755 12.3501 13.8111 11.7563 13.5651C11.1624 13.3191 10.6548 12.9026 10.2977 12.3681C9.94061 11.8336 9.75 11.2053 9.75 10.5625C9.75 9.70055 10.0924 8.8739 10.7019 8.2644C11.3114 7.65491 12.138 7.3125 13 7.3125Z" fill="black"/>
</g>
</svg>
