<svg width="245" height="73" viewBox="0 0 245 73" fill="none" xmlns="http://www.w3.org/2000/svg">
<rect width="245" height="73" rx="8" fill="#CCCCCC"/>
<path d="M89.7125 21.6969C89.6245 21.5941 89.5153 21.5116 89.3923 21.455C89.2694 21.3984 89.1357 21.3691 89.0004 21.3691C88.8651 21.3691 88.7314 21.3984 88.6084 21.455C88.4855 21.5116 88.3763 21.5941 88.2883 21.6969C85.8148 24.5898 77.75 34.5914 77.75 42C77.75 48.9039 82.0969 53.25 89 53.25C95.9031 53.25 100.25 48.9039 100.25 42C100.25 34.5914 92.1852 24.5898 89.7125 21.6969ZM90.25 49.1875C90.0998 49.1878 89.9518 49.1521 89.8183 49.0833C89.6849 49.0145 89.5699 48.9146 89.4831 48.7921C89.3962 48.6696 89.3401 48.528 89.3194 48.3793C89.2987 48.2306 89.314 48.0791 89.3641 47.9375C89.428 47.7528 89.5486 47.5929 89.7086 47.4807C89.8687 47.3685 90.06 47.3096 90.2555 47.3125C91.4964 47.3098 92.6857 46.8157 93.5632 45.9382C94.4407 45.0607 94.9348 43.8714 94.9375 42.6305C94.9346 42.435 94.9935 42.2437 95.1057 42.0836C95.2179 41.9236 95.3778 41.803 95.5625 41.7391C95.7041 41.689 95.8556 41.6737 96.0043 41.6944C96.153 41.7151 96.2946 41.7712 96.4171 41.8581C96.5396 41.9449 96.6395 42.0599 96.7083 42.1933C96.7771 42.3268 96.8128 42.4748 96.8125 42.625C96.8106 44.3649 96.1186 46.033 94.8883 47.2633C93.658 48.4936 91.9899 49.1856 90.25 49.1875Z" fill="#AAAAAA"/>
<path d="M123.712 21.6969C123.624 21.5941 123.515 21.5116 123.392 21.455C123.269 21.3984 123.136 21.3691 123 21.3691C122.865 21.3691 122.731 21.3984 122.608 21.455C122.486 21.5116 122.376 21.5941 122.288 21.6969C119.815 24.5898 111.75 34.5914 111.75 42C111.75 48.9039 116.097 53.25 123 53.25C129.903 53.25 134.25 48.9039 134.25 42C134.25 34.5914 126.185 24.5898 123.712 21.6969ZM124.25 49.1875C124.1 49.1878 123.952 49.1521 123.818 49.0833C123.685 49.0145 123.57 48.9146 123.483 48.7921C123.396 48.6696 123.34 48.528 123.319 48.3793C123.299 48.2306 123.314 48.0791 123.364 47.9375C123.428 47.7528 123.549 47.5929 123.709 47.4807C123.869 47.3685 124.06 47.3096 124.255 47.3125C125.496 47.3098 126.686 46.8157 127.563 45.9382C128.441 45.0607 128.935 43.8714 128.938 42.6305C128.935 42.435 128.994 42.2437 129.106 42.0836C129.218 41.9236 129.378 41.803 129.562 41.7391C129.704 41.689 129.856 41.6737 130.004 41.6944C130.153 41.7151 130.295 41.7712 130.417 41.8581C130.54 41.9449 130.639 42.0599 130.708 42.1933C130.777 42.3268 130.813 42.4748 130.812 42.625C130.811 44.3649 130.119 46.033 128.888 47.2633C127.658 48.4936 125.99 49.1856 124.25 49.1875Z" fill="#AAAAAA"/>
<path d="M157.712 21.6969C157.624 21.5941 157.515 21.5116 157.392 21.455C157.269 21.3984 157.136 21.3691 157 21.3691C156.865 21.3691 156.731 21.3984 156.608 21.455C156.486 21.5116 156.376 21.5941 156.288 21.6969C153.815 24.5898 145.75 34.5914 145.75 42C145.75 48.9039 150.097 53.25 157 53.25C163.903 53.25 168.25 48.9039 168.25 42C168.25 34.5914 160.185 24.5898 157.712 21.6969ZM158.25 49.1875C158.1 49.1878 157.952 49.1521 157.818 49.0833C157.685 49.0145 157.57 48.9146 157.483 48.7921C157.396 48.6696 157.34 48.528 157.319 48.3793C157.299 48.2306 157.314 48.0791 157.364 47.9375C157.428 47.7528 157.549 47.5929 157.709 47.4807C157.869 47.3685 158.06 47.3096 158.255 47.3125C159.496 47.3098 160.686 46.8157 161.563 45.9382C162.441 45.0607 162.935 43.8714 162.938 42.6305C162.935 42.435 162.994 42.2437 163.106 42.0836C163.218 41.9236 163.378 41.803 163.562 41.7391C163.704 41.689 163.856 41.6737 164.004 41.6944C164.153 41.7151 164.295 41.7712 164.417 41.8581C164.54 41.9449 164.639 42.0599 164.708 42.1933C164.777 42.3268 164.813 42.4748 164.812 42.625C164.811 44.3649 164.119 46.033 162.888 47.2633C161.658 48.4936 159.99 49.1856 158.25 49.1875Z" fill="#AAAAAA"/>
</svg>
