<svg width="26" height="26" viewBox="0 0 26 26" fill="none" xmlns="http://www.w3.org/2000/svg">
<path d="M21.1747 19.4502C21.4037 19.6792 21.5323 19.9897 21.5323 20.3135C21.5323 20.6373 21.4037 20.9478 21.1747 21.1768C20.9458 21.4057 20.6352 21.5344 20.3114 21.5344C19.9876 21.5344 19.6771 21.4057 19.4482 21.1768L13 14.7266L6.54972 21.1748C6.32076 21.4037 6.01023 21.5323 5.68644 21.5323C5.36265 21.5323 5.05212 21.4037 4.82316 21.1748C4.5942 20.9458 4.46558 20.6353 4.46558 20.3115C4.46558 19.9877 4.5942 19.6772 4.82316 19.4482L11.2734 13L4.82519 6.54976C4.59623 6.3208 4.46761 6.01027 4.46761 5.68648C4.46761 5.36269 4.59623 5.05215 4.82519 4.8232C5.05415 4.59424 5.36468 4.46562 5.68847 4.46562C6.01226 4.46562 6.3228 4.59424 6.55175 4.8232L13 11.2734L19.4502 4.82218C19.6791 4.59323 19.9897 4.4646 20.3135 4.4646C20.6373 4.4646 20.9478 4.59323 21.1768 4.82218C21.4057 5.05114 21.5343 5.36167 21.5343 5.68546C21.5343 6.00926 21.4057 6.31979 21.1768 6.54874L14.7265 13L21.1747 19.4502Z" fill="#35224B"/>
</svg>
